<svg width="31" height="56" viewBox="0 0 31 56" fill="none" xmlns="http://www.w3.org/2000/svg">
<path d="M3.59669 11.1612C3.59669 5.69382 7.22762 0 15.4144 0C22.8818 0 25.8619 5.14385 25.8619 8.92894C25.8619 11.1612 24.8685 12.9081 23.0873 12.9081C21.6144 12.9081 20.9635 11.9053 20.9635 10.9024C20.9635 9.026 22.779 8.86424 22.779 6.47025C22.779 3.9145 20.0729 1.35875 15.3801 1.35875C11.0983 1.35875 6.67956 3.88215 6.67956 9.28481C6.67956 19.0225 22.5392 25.9133 25.3823 38.5303C27.2663 36.4275 28.4652 33.6453 28.4652 30.2808V29.9896C28.3967 27.3692 27.1635 24.9752 24.3547 23.5841L26.8895 20.9636C29.5956 21.9988 31 25.0722 31 28.6632C31 33.71 28.7392 38.0774 25.7591 40.6979C25.7934 41.2478 25.8276 41.7978 25.8276 42.3478C25.8276 47.7181 23.5669 54.9648 14.8663 56L14.6608 55.0942C21.9569 53.7031 23.3613 48.9798 23.3613 44.7741C23.3613 43.9653 23.3271 43.1889 23.2243 42.4448C20.7923 43.7712 17.9834 44.4183 15.2773 44.4183C5.89171 44.4183 0 37.4304 0 30.3778C0 26.2045 2.05525 22.0312 6.67956 19.2166C4.82983 16.6932 3.59669 14.0404 3.59669 11.1612ZM22.8475 40.6979C20.7238 32.4483 12.5713 26.5927 7.57017 20.4136C5.24088 22.6135 4.04199 26.1398 4.04199 29.7631C4.04199 36.201 7.80995 42.9301 15.4829 42.9301C18.0519 42.9301 20.6552 42.1537 22.8475 40.6979Z" fill="url(#paint0_linear_63_480)"/>
<defs>
<linearGradient id="paint0_linear_63_480" x1="15.5" y1="-11.9778" x2="15.5" y2="42" gradientUnits="userSpaceOnUse">
<stop stop-color="#446C94"/>
<stop offset="0.971154" stop-color="#446C94" stop-opacity="0"/>
</linearGradient>
</defs>
</svg>
