<svg width="47" height="85" viewBox="0 0 47 85" fill="none" xmlns="http://www.w3.org/2000/svg">
<path d="M5.45304 16.9411C5.45304 8.6424 10.958 0 23.3702 0C34.6917 0 39.2099 7.80763 39.2099 13.5529C39.2099 16.9411 37.7039 19.5927 35.0033 19.5927C32.7702 19.5927 31.7834 18.0705 31.7834 16.5482C31.7834 13.7002 34.5359 13.4546 34.5359 9.82091C34.5359 5.94165 30.4331 2.06239 23.3182 2.06239C16.8265 2.06239 10.1271 5.89255 10.1271 14.093C10.1271 28.8735 34.1724 39.3328 38.4829 58.4835C41.3392 55.2917 43.1569 51.0687 43.1569 45.9619V45.5199C43.053 41.5425 41.1834 37.9087 36.9249 35.7972L40.768 31.8198C44.8707 33.3911 47 38.056 47 43.5066C47 51.167 43.5724 57.7961 39.0541 61.7735C39.1061 62.6083 39.158 63.4431 39.158 64.2779C39.158 72.4292 35.7304 83.4286 22.5392 85L22.2276 83.6251C33.2895 81.5136 35.4188 74.3443 35.4188 67.9607C35.4188 66.7331 35.3668 65.5546 35.211 64.4252C31.5238 66.4385 27.2652 67.4206 23.1624 67.4206C8.9326 67.4206 0 56.814 0 46.1092C0 39.7747 3.11602 33.4402 10.1271 29.1681C7.32265 25.338 5.45304 21.3114 5.45304 16.9411ZM34.6398 61.7735C31.4199 49.2519 19.0597 40.364 11.4773 30.985C7.94586 34.3241 6.12818 39.6765 6.12818 45.1762C6.12818 54.948 11.8409 65.1618 23.474 65.1618C27.3691 65.1618 31.316 63.9832 34.6398 61.7735Z" fill="url(#paint0_linear_1_270)"/>
<defs>
<linearGradient id="paint0_linear_1_270" x1="23.5" y1="-18.1806" x2="23.5" y2="63.75" gradientUnits="userSpaceOnUse">
<stop stop-color="#446C94"/>
<stop offset="0.971154" stop-color="#446C94" stop-opacity="0"/>
</linearGradient>
</defs>
</svg>
