<svg width="54" height="54" viewBox="0 0 54 54" fill="none" xmlns="http://www.w3.org/2000/svg">
<g clip-path="url(#clip0_1_1001)">
<path d="M32.2118 54.0002V34.589H37.5535L38.6432 26.9565H30.6853V21.1218C30.6853 20.757 31.3011 19.4813 31.5566 19.1579C32.1637 18.3956 33.5963 17.7948 34.555 17.7948H39.8421V11.1431C39.0996 11.0448 38.3506 10.8963 37.6059 10.8177C33.9195 10.4223 29.9537 10.2956 26.8329 12.5805C22.1704 15.9905 23.1422 21.8711 23.0527 26.9565H16.9467V34.589H23.0527V54.0002C10.8647 52.2526 1.5571 42.4902 0.174721 30.2681C-1.46972 15.724 8.68517 2.22834 23.234 0.255766C41.0192 -2.15588 55.9939 12.8339 53.7838 30.5936C52.349 42.1167 43.6027 51.7065 32.2139 54.0002H32.2118Z" fill="url(#paint0_linear_1_1001)"/>
</g>
<defs>
<linearGradient id="paint0_linear_1_1001" x1="27.0006" y1="0" x2="27.0006" y2="54.0002" gradientUnits="userSpaceOnUse">
<stop stop-color="#FFD69A"/>
<stop offset="1" stop-color="#C39249"/>
</linearGradient>
<clipPath id="clip0_1_1001">
<rect width="54" height="54" fill="white"/>
</clipPath>
</defs>
</svg>
