<svg width="24" height="24" viewBox="0 0 24 24" fill="none" xmlns="http://www.w3.org/2000/svg">
<g clip-path="url(#clip0_1_992)">
<path d="M16.6369 14.997C16.7908 15.1087 19.0991 14.4685 19.4369 14.354C20.3377 14.0499 22.6732 13.0953 22.5879 11.9286C22.5203 11.0087 20.9063 10.1912 20.15 9.88987C20.8707 10.7159 19.8254 11.7324 19.1 10.8698C18.5952 10.27 18.1673 9.44871 17.6888 8.81325C17.6062 8.48285 17.6906 8.16278 17.9787 7.97599C18.2142 7.82299 20.0609 7.2063 20.3818 7.14623C21.1372 7.00356 21.5332 7.7188 21.0874 8.30733L20.6183 8.57671C23.0589 9.39802 25.4883 11.8432 22.8675 14.1316C21.1972 15.5902 18.5689 16.0821 16.4548 16.5044C16.3723 17.1465 16.2493 17.7913 16.0973 18.4202C15.6694 20.1895 14.6692 23.1566 12.8056 23.8446C10.6183 24.6527 9.19676 22.141 8.50614 20.4814C8.26592 21.4783 6.87342 21.2905 7.09768 20.197C7.17651 19.8141 7.74514 18.2954 7.93375 17.9406C8.43482 17.0019 9.3544 17.9359 9.90333 18.3338C10.1417 18.5066 10.8773 19.0003 11.0134 19.1918C11.4366 19.7869 10.882 20.5209 10.1698 20.2702C10.1304 20.2562 9.8855 20.0544 9.93617 20.2224C10.0647 20.6495 10.5996 21.5421 10.8952 21.8875C11.9658 23.1387 12.7418 22.5249 13.469 21.3675C14.3248 20.0065 14.733 18.2569 14.9957 16.6847C14.9469 16.6358 13.7965 16.7719 13.6154 16.7804C10.1501 16.9362 5.02301 16.5692 2.00248 14.7539C-0.85571 13.0362 -0.551687 10.6549 2.25021 9.11455C3.8482 8.23599 5.71832 7.84176 7.50117 7.5245C7.85399 5.68008 8.23871 3.77183 9.17799 2.12453C10.807 -0.733623 13.2251 -0.695138 14.8324 2.15456C16.7786 5.60499 16.9512 10.959 16.6838 14.8337C16.6791 14.8966 16.6575 14.9407 16.6359 14.996L16.6369 14.997ZM15.2312 15.2326C15.4902 12.2149 15.4611 9.10235 14.7865 6.14001C14.5021 4.89163 13.6999 2.29348 12.5757 1.60264C11.294 0.814189 10.2956 2.91204 9.91459 3.84599C9.46419 4.9517 9.15922 6.17474 8.99971 7.3593L10.6137 7.21663C11.4197 7.29454 12.4059 7.1162 13.1885 7.22226C14.0114 7.33396 14.0076 8.50068 13.2363 8.62083C12.465 8.74097 11.446 8.54011 10.6606 8.62083L8.76512 8.7635L8.62249 10.5188C8.5371 11.5222 8.7426 12.7311 8.62531 13.7082C8.53992 14.4197 7.36324 14.5277 7.23093 13.6012C7.11833 12.8165 7.18683 11.31 7.21685 10.4718C7.23187 10.041 7.27972 9.59232 7.31069 9.15961C7.31538 9.09672 7.33696 9.0526 7.35948 8.99722C5.68923 9.29477 3.42783 9.7669 2.11133 10.8942C0.941217 11.8957 1.38318 12.6664 2.50919 13.4032C5.221 15.1781 10.441 15.5433 13.6145 15.3696C14.1521 15.3405 14.6936 15.2617 15.2312 15.2298V15.2326Z" fill="url(#paint0_linear_1_992)"/>
</g>
<defs>
<linearGradient id="paint0_linear_1_992" x1="11.9989" y1="-0.000976563" x2="11.9989" y2="24.0007" gradientUnits="userSpaceOnUse">
<stop stop-color="#FFD69A"/>
<stop offset="1" stop-color="#C39249"/>
</linearGradient>
<clipPath id="clip0_1_992">
<rect width="24" height="24" fill="white"/>
</clipPath>
</defs>
</svg>
