<svg width="35" height="23" viewBox="0 0 35 23" fill="none" xmlns="http://www.w3.org/2000/svg">
<g clip-path="url(#clip0_1_1064)">
<path d="M33.2194 0.258947C29.6468 3.59118 26.1373 6.99204 22.5251 10.2878C22.4194 10.3841 22.2856 10.4435 22.1799 10.5399C20.5832 11.9919 18.8646 14.484 16.3182 13.5304C15.4685 13.2121 13.2688 11.0125 12.4748 10.2878C8.86218 6.99253 5.35261 3.59167 1.78003 0.258947L2.97332 0H32.0272L33.2199 0.258947H33.2194Z" fill="url(#paint0_linear_1_1064)"/>
<path d="M33.2194 22.7414L32.0267 23.0003H2.97332L1.78055 22.7414L12.3494 12.9102C13.161 13.5054 13.8004 14.3305 14.6766 14.8737C16.2198 15.8296 18.2591 15.9046 19.8933 15.1107C20.9856 14.5802 21.7192 13.612 22.6506 12.9102L33.2194 22.7414Z" fill="url(#paint1_linear_1_1064)"/>
<path d="M0.277497 21.3367L0 20.2221L0.000520632 2.71542L0.277497 1.66406L10.8656 11.4773L0.277497 21.3367Z" fill="url(#paint2_linear_1_1064)"/>
<path d="M34.7225 21.3367L24.1344 11.5235L34.7225 1.66406L35 2.7787L34.9995 20.2853L34.7225 21.3367Z" fill="url(#paint3_linear_1_1064)"/>
</g>
<defs>
<linearGradient id="paint0_linear_1_1064" x1="17.5" y1="0" x2="17.5" y2="13.7422" gradientUnits="userSpaceOnUse">
<stop stop-color="#FFD69A"/>
<stop offset="1" stop-color="#C39249"/>
</linearGradient>
<linearGradient id="paint1_linear_1_1064" x1="17.5" y1="12.9102" x2="17.5" y2="23.0003" gradientUnits="userSpaceOnUse">
<stop stop-color="#FFD69A"/>
<stop offset="1" stop-color="#C39249"/>
</linearGradient>
<linearGradient id="paint2_linear_1_1064" x1="5.43279" y1="1.66406" x2="5.43279" y2="21.3367" gradientUnits="userSpaceOnUse">
<stop stop-color="#FFD69A"/>
<stop offset="1" stop-color="#C39249"/>
</linearGradient>
<linearGradient id="paint3_linear_1_1064" x1="29.5672" y1="1.66406" x2="29.5672" y2="21.3367" gradientUnits="userSpaceOnUse">
<stop stop-color="#FFD69A"/>
<stop offset="1" stop-color="#C39249"/>
</linearGradient>
<clipPath id="clip0_1_1064">
<rect width="35" height="23" fill="white"/>
</clipPath>
</defs>
</svg>
