<svg width="25" height="25" viewBox="0 0 25 25" fill="none" xmlns="http://www.w3.org/2000/svg">
<circle cx="12.4137" cy="12.3922" r="12.3922" fill="#122644"/>
<path d="M12.2544 21.4772C11.7112 20.7586 11.405 19.761 11.8099 18.9065C12.1457 18.2052 12.7359 17.9385 12.8988 17.0866C12.9803 16.6766 12.9383 16.2445 12.842 15.8395C12.7778 15.5604 12.6815 15.2839 12.5803 15.0097C12.7038 15.1925 12.8149 15.3851 12.9087 15.5876C13.2717 16.3679 13.3482 17.2619 12.8593 18.0101C12.6248 18.3781 12.284 18.6596 12.089 19.0448C11.6865 19.8178 11.9235 20.7191 12.2519 21.4797L12.2544 21.4772Z" fill="#FFD493"/>
<path d="M8.79021 20.7241C8.56305 19.8523 8.66428 18.8127 9.36304 18.1781C9.94082 17.6595 10.5902 17.6372 11.0667 16.9137C11.2988 16.5655 11.4248 16.1506 11.4914 15.7407C11.5383 15.4567 11.5556 15.1678 11.568 14.8739C11.6124 15.0912 11.6396 15.311 11.6519 15.5333C11.689 16.3926 11.4174 17.2495 10.6791 17.7533C10.3211 18.0027 9.89885 18.1336 9.57045 18.4151C8.90379 18.9757 8.77787 19.8968 8.79021 20.7265V20.7241Z" fill="#FFD493"/>
<path d="M5.87665 18.704C6.00011 17.8126 6.49146 16.889 7.38034 16.5729C8.11367 16.3136 8.71861 16.5433 9.43712 16.0568C9.78526 15.8247 10.0593 15.4888 10.2791 15.1357C10.4322 14.8912 10.5581 14.6319 10.6816 14.3627C10.6396 14.5801 10.5803 14.7949 10.5062 15.0023C10.2124 15.8123 9.63218 16.4964 8.75811 16.6816C8.33342 16.7754 7.89145 16.7359 7.48158 16.8692C6.64948 17.1335 6.18035 17.936 5.87665 18.704Z" fill="#FFD493"/>
<path d="M3.96062 15.7209C4.41493 14.9431 5.22233 14.2788 6.16554 14.3282C6.94084 14.3702 7.41491 14.8147 8.26429 14.6369C8.67416 14.5554 9.05687 14.3529 9.39514 14.1084C9.62971 13.9429 9.84699 13.7479 10.0618 13.5503C9.94082 13.7355 9.80255 13.9108 9.6544 14.0738C9.07169 14.7085 8.27417 15.1209 7.39763 14.9554C6.968 14.8789 6.57541 14.6739 6.14578 14.6393C5.27665 14.5652 4.53592 15.1258 3.96062 15.7209Z" fill="#FFD493"/>
<path d="M3.32852 12.2341C4.04703 11.6908 5.04456 11.3846 5.89887 11.7896C6.6001 12.1254 6.86677 12.7156 7.71861 12.8786C8.12849 12.9601 8.56058 12.9181 8.96552 12.8218C9.24453 12.7576 9.52107 12.6613 9.79514 12.56C9.61242 12.6835 9.41983 12.7946 9.21737 12.8885C8.43713 13.2515 7.5433 13.328 6.79516 12.8391C6.42726 12.6045 6.14578 12.2637 5.7606 12.0686C4.98777 11.6661 4.08654 11.9032 3.32605 12.2316L3.32852 12.2341Z" fill="#FFD493"/>
<path d="M4.0816 8.76697C4.9532 8.53978 5.9927 8.64103 6.62726 9.33988C7.14578 9.91773 7.168 10.5672 7.89145 11.0438C8.2396 11.2759 8.65441 11.4019 9.06428 11.4685C9.34823 11.5155 9.63712 11.5328 9.93094 11.5451C9.71366 11.5896 9.49391 11.6167 9.27169 11.6291C8.41243 11.6661 7.55565 11.3945 7.05195 10.6561C6.80257 10.298 6.67171 9.87575 6.39023 9.54731C5.82974 8.88056 4.90876 8.75462 4.07913 8.76697H4.0816Z" fill="#FFD493"/>
<path d="M6.10381 5.85548C6.99516 5.97895 7.91861 6.47037 8.23466 7.35938C8.49392 8.09281 8.26429 8.69782 8.7507 9.41643C8.9828 9.76463 9.3186 10.0387 9.67168 10.2585C9.91613 10.4116 10.1754 10.5376 10.4445 10.661C10.2272 10.6191 10.0124 10.5598 9.80502 10.4857C8.99515 10.1918 8.3112 9.61152 8.12602 8.73733C8.03219 8.31259 8.0717 7.87056 7.93836 7.46063C7.67417 6.62842 6.8717 6.15922 6.10381 5.85548Z" fill="#FFD493"/>
<path d="M9.08404 3.93672C9.86181 4.39109 10.526 5.19861 10.4766 6.14194C10.4346 6.91735 9.9902 7.39148 10.168 8.24097C10.2495 8.6509 10.4519 9.03367 10.6964 9.37198C10.8618 9.60658 11.0569 9.82389 11.2544 10.0387C11.0692 9.91773 10.8939 9.77944 10.7309 9.63128C10.0964 9.04848 9.68403 8.25085 9.84946 7.37419C9.926 6.94451 10.1309 6.55187 10.1655 6.12218C10.2396 5.25293 9.67909 4.5121 9.08404 3.93672Z" fill="#FFD493"/>
<path d="M12.5729 3.307C13.1161 4.02562 13.4223 5.02327 13.0173 5.87771C12.6815 6.57903 12.0914 6.84573 11.9285 7.69769C11.847 8.10762 11.889 8.53978 11.9853 8.94477C12.0494 9.22382 12.1457 9.50039 12.247 9.7745C12.1235 9.59176 12.0124 9.39915 11.9186 9.19665C11.5556 8.4163 11.4791 7.52236 11.968 6.77412C12.2025 6.40617 12.5433 6.12465 12.7383 5.73942C13.1408 4.96648 12.9038 4.06513 12.5754 3.30453L12.5729 3.307Z" fill="#FFD493"/>
<path d="M16.0371 4.06019C16.2642 4.93191 16.163 5.97154 15.4642 6.60619C14.8865 7.12478 14.2371 7.14701 13.7605 7.87055C13.5284 8.21875 13.4025 8.63362 13.3359 9.04355C13.2889 9.32753 13.2717 9.61646 13.2593 9.91032C13.2149 9.69301 13.1877 9.47323 13.1754 9.25098C13.1383 8.39161 13.4099 7.53471 14.1482 7.03094C14.5062 6.78153 14.9284 6.65064 15.2568 6.36913C15.9235 5.80856 16.0494 4.88745 16.0371 4.05772V4.06019Z" fill="#FFD493"/>
<path d="M18.9506 6.0802C18.8272 6.97167 18.3358 7.89525 17.4469 8.21134C16.7136 8.47063 16.1087 8.24097 15.3902 8.72746C15.042 8.95958 14.7679 9.29543 14.5482 9.64856C14.3951 9.89304 14.2692 10.1523 14.1457 10.4215C14.1877 10.2042 14.247 9.98935 14.321 9.78191C14.6149 8.97193 15.1951 8.28789 16.0692 8.10268C16.4939 8.00884 16.9358 8.04836 17.3457 7.91501C18.1778 7.65077 18.6469 6.8482 18.9506 6.0802Z" fill="#FFD493"/>
<path d="M20.8667 9.0633C20.4124 9.84118 19.6049 10.5055 18.6617 10.4561C17.8864 10.4141 17.4124 9.96959 16.563 10.1474C16.1531 10.2289 15.7704 10.4314 15.4321 10.6759C15.1976 10.8413 14.9803 11.0364 14.7655 11.234C14.8865 11.0487 15.0247 10.8734 15.1729 10.7104C15.7556 10.0758 16.5531 9.66338 17.4297 9.82883C17.8593 9.90539 18.2519 10.1103 18.6815 10.1449C19.5506 10.219 20.2914 9.65844 20.8667 9.0633Z" fill="#FFD493"/>
<path d="M21.4988 12.5526C20.7803 13.0959 19.7827 13.4021 18.9284 12.9971C18.2272 12.6613 17.9605 12.0711 17.1087 11.9081C16.6988 11.8266 16.2667 11.8686 15.8618 11.9649C15.5828 12.0291 15.3062 12.1254 15.0321 12.2267C15.2149 12.1032 15.4074 11.9921 15.6099 11.8982C16.3902 11.5352 17.284 11.4587 18.0321 11.9476C18.4 12.1822 18.6815 12.523 19.0667 12.7181C19.8395 13.1206 20.7407 12.8835 21.5012 12.5551L21.4988 12.5526Z" fill="#FFD493"/>
<path d="M20.7457 16.0173C19.8741 16.2445 18.8346 16.1432 18.2 15.4444C17.6815 14.8665 17.6593 14.2171 16.9358 13.7404C16.5877 13.5083 16.1729 13.3824 15.763 13.3157C15.4791 13.2688 15.1902 13.2515 14.8963 13.2391C15.1136 13.1947 15.3334 13.1675 15.5556 13.1552C16.4148 13.1181 17.2716 13.3898 17.7753 14.1281C18.0247 14.4862 18.1556 14.9085 18.4371 15.2369C18.9975 15.9037 19.9185 16.0296 20.7481 16.0173H20.7457Z" fill="#FFD493"/>
<path d="M18.7235 18.9288C17.8321 18.8053 16.9087 18.3139 16.5926 17.4249C16.3334 16.6914 16.563 16.0864 16.0766 15.3678C15.8445 15.0196 15.5087 14.7455 15.1556 14.5257C14.9112 14.3726 14.6519 14.2467 14.3828 14.1232C14.6 14.1652 14.8149 14.2245 15.0223 14.2985C15.8321 14.5924 16.5161 15.1727 16.7013 16.0469C16.7951 16.4717 16.7556 16.9137 16.8889 17.3236C17.1531 18.1558 17.9556 18.625 18.7235 18.9288Z" fill="#FFD493"/>
<path d="M15.7432 20.8475C14.9655 20.3932 14.3013 19.5856 14.3507 18.6423C14.3926 17.8669 14.8371 17.3928 14.6593 16.5433C14.5778 16.1333 14.3754 15.7506 14.1309 15.4123C13.9655 15.1777 13.7704 14.9604 13.5729 14.7455C13.7581 14.8665 13.9334 15.0048 14.0963 15.153C14.7309 15.7358 15.1433 16.5334 14.9778 17.4101C14.9013 17.8397 14.6963 18.2324 14.6618 18.6621C14.5877 19.5313 15.1482 20.2722 15.7432 20.8475Z" fill="#FFD493"/>
<path d="M14.1704 20.082C13.5852 19.635 13.1433 18.8942 13.2964 18.1385C13.3778 17.6743 13.7186 17.2841 13.7828 16.8248C13.8445 16.4766 13.768 16.1037 13.6371 15.7728C13.5161 15.474 13.3556 15.2024 13.1778 14.9258C13.2223 14.9653 13.2667 15.0048 13.3112 15.0468C13.9038 15.6074 14.2939 16.4322 14.0075 17.2446C13.8939 17.5804 13.6815 17.8669 13.6001 18.2052C13.4322 18.8868 13.7828 19.5412 14.1704 20.082Z" fill="#FFD493"/>
<path d="M11.0939 20.1709C10.7235 19.5338 10.5976 18.6794 11.0297 18.0398C11.284 17.6422 11.7482 17.4125 11.9828 17.0125C12.1729 16.7137 12.247 16.3408 12.2519 15.9852C12.2544 15.6617 12.2099 15.3505 12.1531 15.027C12.1803 15.0814 12.205 15.1357 12.2297 15.19C12.563 15.9333 12.6075 16.847 12.0297 17.4866C11.7976 17.7533 11.4914 17.9361 11.2865 18.2176C10.8717 18.7831 10.9433 19.5214 11.0939 20.1709Z" fill="#FFD493"/>
<path d="M8.21984 19.072C8.12355 18.341 8.33342 17.5064 8.97539 17.0791C9.36305 16.81 9.87909 16.7729 10.247 16.4939C10.5359 16.2889 10.7482 15.9728 10.889 15.6469C11.0149 15.3505 11.0939 15.0443 11.163 14.7233C11.168 14.7826 11.1704 14.8418 11.1729 14.9036C11.1951 15.7185 10.889 16.5779 10.1112 16.9507C9.79514 17.1088 9.44206 17.1606 9.14576 17.3434C8.54577 17.7064 8.33096 18.4176 8.21984 19.0745V19.072Z" fill="#FFD493"/>
<path d="M5.98282 16.9581C6.17295 16.2469 6.68652 15.553 7.44454 15.4049C7.90627 15.3036 8.39762 15.4691 8.84453 15.353C9.19021 15.2764 9.50625 15.0641 9.76057 14.8171C9.9902 14.5899 10.1803 14.3381 10.368 14.0689C10.3482 14.1257 10.3285 14.1825 10.3087 14.2393C10.0174 15.0023 9.40502 15.6765 8.5433 15.7234C8.19021 15.7481 7.84454 15.6617 7.50133 15.716C6.80751 15.8222 6.33838 16.3951 5.98529 16.9606L5.98282 16.9581Z" fill="#FFD493"/>
<path d="M4.72357 14.1504C5.17048 13.5651 5.91122 13.1231 6.66677 13.2762C7.13096 13.3577 7.52108 13.6985 7.98034 13.7627C8.32849 13.8244 8.70132 13.7479 9.03218 13.617C9.33095 13.496 9.60255 13.3355 9.87909 13.1577C9.83959 13.2021 9.80008 13.2466 9.7581 13.291C9.19761 13.8837 8.37293 14.2738 7.56059 13.9874C7.22479 13.8738 6.93837 13.6614 6.6001 13.5799C5.91863 13.412 5.26431 13.7627 4.72357 14.1504Z" fill="#FFD493"/>
<path d="M4.63715 11.0734C5.27418 10.703 6.1285 10.5771 6.768 11.0092C7.16553 11.2636 7.39516 11.7278 7.79516 11.9624C8.09392 12.1526 8.46676 12.2267 8.82231 12.2316C9.14576 12.2341 9.45687 12.1896 9.78033 12.1328C9.72601 12.16 9.67169 12.1847 9.61737 12.2094C8.87416 12.5428 7.96059 12.5872 7.32109 12.0094C7.05442 11.7772 6.8717 11.471 6.59022 11.2661C6.0248 10.8512 5.28653 10.9228 4.63715 11.0734Z" fill="#FFD493"/>
<path d="M5.73344 8.19652C6.4643 8.10021 7.29886 8.31012 7.72602 8.95218C7.99515 9.33988 8.03219 9.856 8.3112 10.2239C8.51614 10.5129 8.83219 10.7252 9.15811 10.866C9.4544 10.9919 9.76057 11.071 10.0816 11.1401C10.0223 11.1451 9.96304 11.1475 9.90131 11.15C9.0865 11.1722 8.22725 10.866 7.85441 10.0881C7.69639 9.77203 7.64454 9.4189 7.46182 9.12257C7.09886 8.52249 6.38776 8.30765 5.73097 8.19652H5.73344Z" fill="#FFD493"/>
<path d="M7.84948 5.9592C8.56058 6.14935 9.2544 6.66299 9.40255 7.42111C9.50378 7.8829 9.33836 8.37432 9.4544 8.82129C9.53095 9.16702 9.74329 9.48311 9.9902 9.73746C10.2174 9.96712 10.4692 10.1573 10.7383 10.3449C10.6816 10.3252 10.6248 10.3054 10.568 10.2857C9.80502 9.99429 9.13095 9.38186 9.08404 8.52002C9.05934 8.16689 9.14576 7.82117 9.09144 7.47791C8.98527 6.784 8.41243 6.3148 7.84701 5.96167L7.84948 5.9592Z" fill="#FFD493"/>
<path d="M10.6569 4.70225C11.242 5.14922 11.684 5.89005 11.5309 6.64571C11.4495 7.10996 11.1087 7.50014 11.0445 7.95946C10.9828 8.30765 11.0593 8.68054 11.1902 9.01144C11.3112 9.31025 11.4717 9.58189 11.6495 9.85847C11.605 9.81895 11.5606 9.77944 11.5161 9.73746C10.9235 9.1769 10.5334 8.3521 10.8198 7.53965C10.9334 7.2038 11.1457 6.91735 11.2272 6.57903C11.3951 5.89746 11.0445 5.24306 10.6569 4.70225Z" fill="#FFD493"/>
<path d="M13.7334 4.61582C14.1038 5.25293 14.2297 6.10737 13.7976 6.74695C13.5433 7.14454 13.0791 7.3742 12.8445 7.77425C12.6544 8.07305 12.5803 8.44594 12.5754 8.80154C12.5729 9.12504 12.6173 9.43619 12.6741 9.75969C12.647 9.70536 12.6223 9.65103 12.5976 9.5967C12.2643 8.8534 12.2198 7.9397 12.7976 7.30011C13.0297 7.03341 13.3359 6.85067 13.5408 6.56915C13.9556 6.00365 13.884 5.26528 13.7334 4.61582Z" fill="#FFD493"/>
<path d="M16.6099 5.71225C16.7062 6.44321 16.4963 7.27789 15.8544 7.7051C15.4667 7.97427 14.9507 8.01131 14.5828 8.29036C14.2939 8.49533 14.0815 8.81142 13.9408 9.13739C13.8149 9.43372 13.7359 9.73993 13.6667 10.061C13.6618 10.0017 13.6593 9.94243 13.6568 9.88069C13.6346 9.06577 13.9408 8.2064 14.7186 7.83351C15.0346 7.67547 15.3877 7.62361 15.684 7.44087C16.284 7.07786 16.4988 6.36666 16.6099 5.70978V5.71225Z" fill="#FFD493"/>
<path d="M18.8469 7.8261C18.6568 8.53731 18.1432 9.23122 17.3852 9.37939C16.9235 9.48064 16.4321 9.31519 15.9852 9.43125C15.6395 9.5078 15.3235 9.72018 15.0692 9.96712C14.8395 10.1943 14.6494 10.4462 14.4618 10.7154C14.4815 10.6586 14.5013 10.6018 14.521 10.545C14.8124 9.78191 15.4247 9.10775 16.2865 9.06083C16.6395 9.03614 16.9852 9.12257 17.3284 9.06824C18.0222 8.96205 18.4914 8.38914 18.8445 7.82364L18.8469 7.8261Z" fill="#FFD493"/>
<path d="M20.1037 10.6363C19.6568 11.2216 18.9161 11.6636 18.1605 11.5105C17.6963 11.429 17.3062 11.0883 16.8469 11.024C16.4988 10.9623 16.126 11.0389 15.7951 11.1697C15.4963 11.2907 15.2247 11.4513 14.9482 11.6291C14.9877 11.5846 15.0272 11.5402 15.0692 11.4957C15.6297 10.903 16.4544 10.5129 17.2667 10.7993C17.6025 10.9129 17.8889 11.1253 18.2272 11.2068C18.9087 11.3747 19.563 11.024 20.1037 10.6363Z" fill="#FFD493"/>
<path d="M20.1901 13.7133C19.5531 14.0837 18.6988 14.2096 18.0593 13.7775C17.6618 13.5231 17.4321 13.0589 17.0321 12.8243C16.7334 12.6341 16.3605 12.56 16.005 12.5551C15.6815 12.5526 15.3704 12.5971 15.047 12.6539C15.1013 12.6267 15.1556 12.602 15.2099 12.5773C15.9531 12.244 16.8667 12.1995 17.5062 12.7774C17.7729 13.0095 17.9556 13.3157 18.2371 13.5207C18.8025 13.9355 19.5408 13.8639 20.1901 13.7133Z" fill="#FFD493"/>
<path d="M19.0938 16.5877C18.363 16.684 17.5284 16.4741 17.1013 15.8321C16.8321 15.4444 16.7951 14.9283 16.5161 14.5603C16.3111 14.2714 15.9951 14.059 15.6692 13.9182C15.3729 13.7923 15.0667 13.7133 14.7457 13.6441C14.805 13.6392 14.8642 13.6367 14.926 13.6343C15.7408 13.612 16.6 13.9182 16.9729 14.6961C17.1309 15.0122 17.1827 15.3653 17.3655 15.6617C17.7284 16.2618 18.4395 16.4766 19.0963 16.5877H19.0938Z" fill="#FFD493"/>
<path d="M16.9803 18.8251C16.2692 18.6349 15.5753 18.1213 15.4272 17.3631C15.326 16.9013 15.4914 16.4099 15.3753 15.963C15.2988 15.6172 15.0865 15.3011 14.8396 15.0468C14.6124 14.8171 14.3605 14.627 14.0914 14.4393C14.1482 14.4591 14.205 14.4788 14.2618 14.4986C15.0247 14.79 15.6988 15.4024 15.7457 16.2642C15.7704 16.6174 15.684 16.9631 15.7383 17.3063C15.8445 18.0003 16.4173 18.4695 16.9827 18.8226L16.9803 18.8251Z" fill="#FFD493"/>
</svg>
