<svg width="57" height="57" viewBox="0 0 57 57" fill="none" xmlns="http://www.w3.org/2000/svg">
<g clip-path="url(#clip0_1_1070)">
<path d="M57 28.5C57 44.2404 44.2402 57 28.5011 57C12.7621 57 0 44.2404 0 28.5C0 12.7596 12.7598 0 28.4989 0C44.2379 0 56.9978 12.7596 56.9978 28.5H57ZM18.3436 17.8451C15.6432 18.2866 13.7343 20.3957 13.4846 23.1157C14.1602 28.4955 10.9112 37.9019 18.5377 39.1861C24.9689 38.8494 31.8684 39.6409 38.246 39.1928C41.1628 38.9877 43.2924 36.6556 43.5266 33.7862C43.7607 30.9168 43.7206 26.295 43.5333 23.4301C43.346 20.5651 41.4349 18.2308 38.4601 17.8161L18.3436 17.8451Z" fill="url(#paint0_linear_1_1070)"/>
<path d="M24.4894 23.9375L32.3946 28.5548L24.4894 33.0652V23.9375Z" fill="url(#paint1_linear_1_1070)"/>
</g>
<defs>
<linearGradient id="paint0_linear_1_1070" x1="28.5" y1="0" x2="28.5" y2="57" gradientUnits="userSpaceOnUse">
<stop stop-color="#FFD69A"/>
<stop offset="1" stop-color="#C39249"/>
</linearGradient>
<linearGradient id="paint1_linear_1_1070" x1="28.442" y1="23.9375" x2="28.442" y2="33.0652" gradientUnits="userSpaceOnUse">
<stop stop-color="#FFD69A"/>
<stop offset="1" stop-color="#C39249"/>
</linearGradient>
<clipPath id="clip0_1_1070">
<rect width="57" height="57" fill="white"/>
</clipPath>
</defs>
</svg>
