<svg width="28" height="28" viewBox="0 0 28 28" fill="none" xmlns="http://www.w3.org/2000/svg">
<path d="M5.19089 0.140504C6.14962 -0.0106848 7.12466 -0.0115901 8.09335 0.0101376L8.01006 0.0870899C6.74261 0.91727 5.69153 2.05707 4.93197 3.36526C3.40922 5.98436 2.85425 9.08146 2.98009 12.0835C3.10503 14.5279 3.69168 16.9858 4.93559 19.1106C5.14381 19.4909 5.49055 19.8267 5.49598 20.2884C5.53491 21.2789 5.04513 22.2122 4.38244 22.9202C4.42589 22.9655 4.46844 23.0107 4.5119 23.056C5.13204 23.7332 5.79383 24.3696 6.42394 25.0378C7.3193 26.0499 8.3396 26.9462 9.21686 27.9764C7.75748 27.9982 6.2809 28.0661 4.83872 27.7936C3.02355 27.4414 1.41208 26.183 0.642552 24.5009C0.176311 23.5286 0.0368919 22.4413 0.000678991 21.3757C-0.00022633 16.4562 -0.00022633 11.5376 0.000678991 6.61899C0.0205961 4.97492 0.456056 3.25481 1.61306 2.03534C2.52924 1.00237 3.82657 0.330622 5.19089 0.140504Z" fill="url(#paint0_linear_162_77)"/>
<path d="M18.4828 9.17285C18.8712 9.17285 19.2596 9.17285 19.6489 9.17285C19.6426 11.4479 19.6426 13.7239 19.6489 15.999C19.2687 15.9456 18.6358 16.1891 18.4928 15.683C18.4693 13.5139 18.491 11.3429 18.4828 9.17285Z" fill="url(#paint1_linear_162_77)"/>
<path d="M6.60153 9.25476C8.40855 9.25294 10.2138 9.24118 12.0199 9.25385C12.0072 9.60783 11.9873 9.9935 11.7501 10.2796C10.5152 11.8168 9.30663 13.374 8.07267 14.9112C9.38449 14.9194 10.6963 14.9139 12.0081 14.9139C11.9837 15.2208 12.0914 15.5784 11.8922 15.8446C11.7673 16.0166 11.541 16.0012 11.3536 16.003C9.71221 15.994 8.07086 16.0112 6.43042 15.994C6.43495 15.6472 6.43857 15.2634 6.68119 14.9873C7.90157 13.4564 9.13643 11.9363 10.3514 10.4018C9.10293 10.4036 7.85359 10.3937 6.60515 10.4072C6.597 10.0234 6.59972 9.63861 6.60153 9.25476Z" fill="url(#paint2_linear_162_77)"/>
<path d="M22.54 10.761C23.84 10.4704 25.2505 11.3241 25.6063 12.6043C26.0526 13.936 25.2378 15.5194 23.8916 15.925C22.7482 16.3278 21.3794 15.8019 20.7864 14.7481C20.321 13.9695 20.293 12.9501 20.7158 12.1489C21.0743 11.4418 21.7668 10.9249 22.54 10.761ZM22.5183 11.9144C21.7252 12.1941 21.2979 13.1592 21.6075 13.9387C21.8637 14.6756 22.7265 15.1265 23.4761 14.9001C24.3316 14.6955 24.8486 13.6934 24.5453 12.8722C24.2918 12.0593 23.3095 11.5903 22.5183 11.9144Z" fill="url(#paint3_linear_162_77)"/>
<path d="M12.9089 11.7096C13.5345 10.9347 14.6299 10.5526 15.595 10.8288C15.9136 10.9093 16.2024 11.0687 16.4813 11.238C16.4786 11.1529 16.4722 10.9836 16.4695 10.8985C16.8344 10.8967 17.1983 10.8976 17.5631 10.8958C17.5613 12.5978 17.5595 14.2998 17.5641 16.0027C17.2961 15.9954 17.0236 16.0271 16.7601 15.9728C16.5754 15.8977 16.5184 15.6958 16.4451 15.531C15.4384 16.3132 13.8568 16.1358 13.0202 15.1834C12.1285 14.2608 12.0823 12.6892 12.9089 11.7096ZM14.3828 11.9378C13.5444 12.2329 13.1379 13.313 13.5625 14.0915C13.9247 14.8502 14.9441 15.1689 15.6728 14.7506C16.3491 14.3957 16.6614 13.5148 16.3708 12.8105C16.0893 12.0446 15.1396 11.6155 14.3828 11.9378Z" fill="url(#paint4_linear_162_77)"/>
<path d="M27.8758 20.7722L27.9474 20.6943C27.9845 22.1094 27.8315 23.5859 27.1371 24.8452C26.3296 26.3227 24.8647 27.42 23.2171 27.7712C22.2927 27.9623 21.3449 28.0048 20.4033 27.993C17.5072 27.9939 14.6111 27.993 11.7149 27.9939C10.8821 27.9804 10.0473 28.0193 9.21716 27.9758C8.33991 26.9456 7.31961 26.0493 6.42425 25.0372C5.79414 24.369 5.13235 23.7326 4.51221 23.0554C5.73168 23.1559 6.9602 22.9133 8.07374 22.4181C10.2519 23.8376 12.8403 24.5085 15.4087 24.7294C17.9771 24.9249 20.5943 24.6569 23.0378 23.824C24.8512 23.1921 26.5858 22.2153 27.8758 20.7722Z" fill="url(#paint5_linear_162_77)"/>
<defs>
<linearGradient id="paint0_linear_162_77" x1="4.60843" y1="0" x2="4.60843" y2="28" gradientUnits="userSpaceOnUse">
<stop stop-color="#FFD69A"/>
<stop offset="1" stop-color="#C39249"/>
</linearGradient>
<linearGradient id="paint1_linear_162_77" x1="19.0652" y1="9.17285" x2="19.0652" y2="16.0119" gradientUnits="userSpaceOnUse">
<stop stop-color="#FFD69A"/>
<stop offset="1" stop-color="#C39249"/>
</linearGradient>
<linearGradient id="paint2_linear_162_77" x1="9.22515" y1="9.24805" x2="9.22515" y2="16.003" gradientUnits="userSpaceOnUse">
<stop stop-color="#FFD69A"/>
<stop offset="1" stop-color="#C39249"/>
</linearGradient>
<linearGradient id="paint3_linear_162_77" x1="23.0731" y1="10.7041" x2="23.0731" y2="16.0604" gradientUnits="userSpaceOnUse">
<stop stop-color="#FFD69A"/>
<stop offset="1" stop-color="#C39249"/>
</linearGradient>
<linearGradient id="paint4_linear_162_77" x1="14.9414" y1="10.7393" x2="14.9414" y2="16.0225" gradientUnits="userSpaceOnUse">
<stop stop-color="#FFD69A"/>
<stop offset="1" stop-color="#C39249"/>
</linearGradient>
<linearGradient id="paint5_linear_162_77" x1="16.2324" y1="20.6943" x2="16.2324" y2="27.9971" gradientUnits="userSpaceOnUse">
<stop stop-color="#FFD69A"/>
<stop offset="1" stop-color="#C39249"/>
</linearGradient>
</defs>
</svg>
