<svg xmlns="http://www.w3.org/2000/svg" version="1.1" xmlns:xlink="http://www.w3.org/1999/xlink" width="39" height="39"><svg width="39" height="39" viewBox="0 0 39 39" fill="none" xmlns="http://www.w3.org/2000/svg">
<circle cx="19.5001" cy="19.5455" r="19.0909" fill="#122644"></circle>
<path d="M19.2609 33.178C18.4458 32.0996 17.9864 30.6026 18.594 29.3205C19.0979 28.2681 19.9834 27.8679 20.2279 26.5895C20.3502 25.9744 20.2872 25.3259 20.1427 24.7182C20.0464 24.2995 19.9019 23.8845 19.75 23.4732C19.9352 23.7474 20.102 24.0364 20.2427 24.3403C20.7874 25.5112 20.9022 26.8526 20.1686 27.9754C19.8167 28.5275 19.3054 28.9499 19.0127 29.528C18.4088 30.6878 18.7644 32.0404 19.2572 33.1817L19.2609 33.178Z" fill="#FFD493"></path>
<path d="M14.0628 32.0478C13.7219 30.7397 13.8738 29.1797 14.9223 28.2274C15.7893 27.4492 16.7637 27.4159 17.4788 26.3301C17.8271 25.8076 18.016 25.1851 18.1161 24.57C18.1865 24.1439 18.2124 23.7103 18.2309 23.2694C18.2976 23.5954 18.3384 23.9252 18.3569 24.2587C18.4125 25.5483 18.0049 26.8341 16.8971 27.59C16.3599 27.9643 15.7263 28.1607 15.2336 28.5831C14.2332 29.4243 14.0442 30.8064 14.0628 32.0515V32.0478Z" fill="#FFD493"></path>
<path d="M9.69082 29.0166C9.87607 27.6789 10.6134 26.2931 11.9472 25.8188C13.0476 25.4297 13.9553 25.7743 15.0335 25.0443C15.5559 24.696 15.9671 24.192 16.2969 23.6621C16.5266 23.2953 16.7156 22.9062 16.9008 22.5023C16.8378 22.8284 16.7489 23.1508 16.6378 23.462C16.1969 24.6775 15.3262 25.7039 14.0146 25.9818C13.3773 26.1226 12.7141 26.0633 12.0991 26.2634C10.8505 26.6599 10.1465 27.8642 9.69082 29.0166Z" fill="#FFD493"></path>
<path d="M6.81572 24.5404C7.49745 23.3731 8.70899 22.3763 10.1243 22.4504C11.2877 22.5134 11.9991 23.1804 13.2736 22.9136C13.8886 22.7913 14.4629 22.4875 14.9705 22.1206C15.3225 21.8724 15.6485 21.5796 15.9708 21.2832C15.7893 21.5611 15.5818 21.8242 15.3595 22.0688C14.4851 23.0211 13.2884 23.6399 11.9731 23.3916C11.3284 23.2768 10.7393 22.9692 10.0947 22.9173C8.7905 22.8062 7.67899 23.6473 6.81572 24.5404Z" fill="#FFD493"></path>
<path d="M5.86723 19.3081C6.9454 18.4929 8.44223 18.0334 9.72417 18.6411C10.7764 19.1451 11.1765 20.0307 12.4548 20.2753C13.0698 20.3976 13.7182 20.3346 14.3258 20.1901C14.7445 20.0937 15.1594 19.9492 15.5707 19.7973C15.2965 19.9826 15.0075 20.1493 14.7037 20.2901C13.5329 20.8348 12.1917 20.9497 11.0691 20.216C10.517 19.864 10.0947 19.3526 9.51669 19.0599C8.35701 18.4559 7.00467 18.8116 5.86353 19.3044L5.86723 19.3081Z" fill="#FFD493"></path>
<path d="M6.99726 14.1056C8.30514 13.7647 9.86496 13.9166 10.8172 14.9653C11.5952 15.8324 11.6286 16.8069 12.7141 17.5221C13.2365 17.8704 13.859 18.0594 14.474 18.1594C14.9001 18.2298 15.3336 18.2558 15.7745 18.2743C15.4484 18.341 15.1187 18.3818 14.7852 18.4003C13.4959 18.4559 12.2102 18.0483 11.4544 16.9403C11.0802 16.403 10.8838 15.7694 10.4615 15.2765C9.62043 14.276 8.23845 14.087 6.99356 14.1056H6.99726Z" fill="#FFD493"></path>
<path d="M10.0317 9.73675C11.3692 9.92203 12.7549 10.6594 13.2291 11.9934C13.6182 13.094 13.2736 14.0018 14.0035 15.0801C14.3518 15.6026 14.8556 16.0139 15.3855 16.3437C15.7523 16.5735 16.1413 16.7624 16.5451 16.9477C16.2191 16.8847 15.8968 16.7958 15.5855 16.6846C14.3703 16.2437 13.344 15.3729 13.0661 14.0611C12.9253 13.4238 12.9846 12.7605 12.7845 12.1453C12.3881 10.8966 11.1839 10.1925 10.0317 9.73675Z" fill="#FFD493"></path>
<path d="M14.5037 6.85755C15.6707 7.53937 16.6674 8.75108 16.5933 10.1666C16.5303 11.3301 15.8634 12.0416 16.1302 13.3163C16.2524 13.9314 16.5562 14.5058 16.923 15.0134C17.1713 15.3655 17.464 15.6915 17.7604 16.0139C17.4825 15.8324 17.2194 15.6248 16.9749 15.4025C16.0227 14.528 15.404 13.3311 15.6522 12.0157C15.7671 11.3709 16.0746 10.7817 16.1265 10.1369C16.2376 8.8326 15.3966 7.72094 14.5037 6.85755Z" fill="#FFD493"></path>
<path d="M19.7389 5.91264C20.554 6.99095 21.0134 8.48799 20.4058 9.7701C19.9019 10.8225 19.0164 11.2227 18.7719 12.5011C18.6496 13.1162 18.7126 13.7647 18.8571 14.3724C18.9534 14.7911 19.0979 15.2061 19.2498 15.6174C19.0646 15.3432 18.8978 15.0542 18.757 14.7503C18.2124 13.5794 18.0975 12.238 18.8311 11.1152C19.1831 10.5631 19.6944 10.1407 19.9871 9.56259C20.591 8.40276 20.2353 7.05024 19.7426 5.90894L19.7389 5.91264Z" fill="#FFD493"></path>
<path d="M24.937 7.04283C25.2779 8.35088 25.126 9.91091 24.0775 10.8632C23.2105 11.6414 22.2361 11.6747 21.521 12.7605C21.1727 13.2829 20.9838 13.9055 20.8837 14.5206C20.8133 14.9467 20.7874 15.3803 20.7689 15.8212C20.7022 15.4952 20.6614 15.1654 20.6429 14.8319C20.5873 13.5423 20.9949 12.2565 22.1027 11.5006C22.6399 11.1263 23.2735 10.9299 23.7662 10.5075C24.7666 9.66635 24.9556 8.28418 24.937 7.03912V7.04283Z" fill="#FFD493"></path>
<path d="M29.309 10.074C29.1237 11.4117 28.3864 12.7975 27.0526 13.2718C25.9522 13.6609 25.0445 13.3163 23.9663 14.0463C23.4439 14.3946 23.0326 14.8986 22.7029 15.4285C22.4732 15.7953 22.2842 16.1844 22.099 16.5883C22.162 16.2622 22.2509 15.9398 22.362 15.6285C22.8029 14.4131 23.6736 13.3867 24.9852 13.1088C25.6225 12.968 26.2857 13.0273 26.9007 12.8272C28.1493 12.4307 28.8532 11.2264 29.309 10.074Z" fill="#FFD493"></path>
<path d="M32.1841 14.5502C31.5023 15.7175 30.2908 16.7143 28.8755 16.6402C27.7121 16.5772 27.0007 15.9102 25.7262 16.177C25.1112 16.2993 24.5369 16.6031 24.0293 16.97C23.6773 17.2182 23.3513 17.511 23.0289 17.8074C23.2105 17.5295 23.418 17.2664 23.6403 17.0218C24.5147 16.0695 25.7114 15.4507 27.0267 15.699C27.6713 15.8138 28.2604 16.1214 28.9051 16.1733C30.2093 16.2844 31.3208 15.4433 32.1841 14.5502Z" fill="#FFD493"></path>
<path d="M33.1326 19.7862C32.0544 20.6014 30.5576 21.0609 29.2756 20.4532C28.2234 19.9492 27.8232 19.0636 26.545 18.819C25.93 18.6967 25.2816 18.7597 24.674 18.9042C24.2553 19.0006 23.8403 19.1451 23.4291 19.297C23.7032 19.1118 23.9922 18.945 24.2961 18.8042C25.4668 18.2595 26.8081 18.1446 27.9307 18.8783C28.4827 19.2303 28.9051 19.7417 29.4831 20.0344C30.6428 20.6384 31.9951 20.2827 33.1363 19.7899L33.1326 19.7862Z" fill="#FFD493"></path>
<path d="M32.0025 24.985C30.6946 25.3259 29.1348 25.174 28.1826 24.1253C27.4046 23.2582 27.3712 22.2837 26.2857 21.5685C25.7632 21.2202 25.1408 21.0312 24.5258 20.9312C24.0997 20.8608 23.6662 20.8348 23.2253 20.8163C23.5513 20.7496 23.8811 20.7088 24.2145 20.6903C25.5039 20.6347 26.7895 21.0423 27.5454 22.1503C27.9196 22.6876 28.1159 23.3212 28.5383 23.8141C29.3794 24.8146 30.7613 25.0035 32.0062 24.985H32.0025Z" fill="#FFD493"></path>
<path d="M28.9681 29.3538C27.6306 29.1686 26.2449 28.4312 25.7707 27.0972C25.3816 25.9966 25.7262 25.0888 24.9963 24.0105C24.648 23.488 24.1441 23.0767 23.6143 22.7469C23.2475 22.5171 22.8585 22.3282 22.4547 22.1429C22.7807 22.2059 23.103 22.2948 23.4143 22.406C24.6295 22.8469 25.6558 23.7177 25.9337 25.0295C26.0745 25.6668 26.0152 26.3301 26.2153 26.9452C26.6117 28.194 27.8158 28.8981 28.9681 29.3538Z" fill="#FFD493"></path>
<path d="M24.4961 32.233C23.329 31.5512 22.3324 30.3395 22.4065 28.924C22.4695 27.7605 23.1364 27.049 22.8696 25.7743C22.7474 25.1592 22.4435 24.5848 22.0767 24.0772C21.8285 23.7251 21.5358 23.3991 21.2394 23.0767C21.5173 23.2582 21.7803 23.4658 22.0249 23.6881C22.9771 24.5626 23.5958 25.7595 23.3476 27.0749C23.2327 27.7197 22.9252 28.3089 22.8733 28.9536C22.7622 30.258 23.6032 31.3697 24.4961 32.233Z" fill="#FFD493"></path>
<path d="M22.136 31.0843C21.2579 30.4136 20.5947 29.302 20.8244 28.1681C20.9467 27.4714 21.458 26.886 21.5543 26.1967C21.647 25.6743 21.5321 25.1147 21.3357 24.6182C21.1542 24.1698 20.9134 23.7622 20.6466 23.3472C20.7133 23.4065 20.78 23.4658 20.8467 23.5287C21.7359 24.3699 22.3213 25.6076 21.8915 26.8267C21.7211 27.3306 21.4024 27.7605 21.2802 28.2681C21.0282 29.2909 21.5543 30.2728 22.136 31.0843Z" fill="#FFD493"></path>
<path d="M17.5196 31.2177C16.9638 30.2617 16.7748 28.9796 17.4232 28.0199C17.8048 27.4233 18.5014 27.0786 18.8534 26.4784C19.1386 26.03 19.2498 25.4704 19.2572 24.9369C19.2609 24.4514 19.1942 23.9845 19.109 23.4991C19.1498 23.5806 19.1868 23.6621 19.2239 23.7437C19.724 24.859 19.7907 26.2301 18.9238 27.1898C18.5755 27.59 18.1161 27.8642 17.8085 28.2867C17.1861 29.1352 17.2935 30.2432 17.5196 31.2177Z" fill="#FFD493"></path>
<path d="M13.2069 29.5688C13.0624 28.4719 13.3773 27.2195 14.3406 26.5784C14.9223 26.1745 15.6967 26.1189 16.2487 25.7002C16.6822 25.3926 17.0008 24.9183 17.212 24.4292C17.401 23.9845 17.5196 23.525 17.6233 23.0433C17.6307 23.1323 17.6344 23.2212 17.6381 23.3138C17.6715 24.5367 17.212 25.8262 16.045 26.3857C15.5707 26.6229 15.0409 26.7007 14.5963 26.9749C13.696 27.5196 13.3736 28.5868 13.2069 29.5725V29.5688Z" fill="#FFD493"></path>
<path d="M9.85014 26.3968C10.1354 25.3296 10.9061 24.2884 12.0435 24.0661C12.7364 23.9141 13.4737 24.1624 14.1443 23.9882C14.663 23.8734 15.1372 23.5547 15.5188 23.1841C15.8634 22.8432 16.1487 22.4653 16.4303 22.0614C16.4006 22.1466 16.371 22.2318 16.3414 22.317C15.9042 23.462 14.9853 24.4737 13.6923 24.5441C13.1624 24.5811 12.6437 24.4514 12.1287 24.5329C11.0876 24.6923 10.3837 25.552 9.85384 26.4005L9.85014 26.3968Z" fill="#FFD493"></path>
<path d="M7.96057 22.1836C8.63118 21.3054 9.74269 20.6421 10.8764 20.8719C11.573 20.9942 12.1584 21.5055 12.8475 21.6019C13.3699 21.6945 13.9294 21.5796 14.4259 21.3832C14.8742 21.2017 15.2817 20.9608 15.6967 20.694C15.6374 20.7607 15.5781 20.8274 15.5151 20.8941C14.6741 21.7834 13.4366 22.3689 12.2177 21.9391C11.7138 21.7686 11.284 21.4499 10.7764 21.3277C9.75381 21.0757 8.77198 21.6019 7.96057 22.1836Z" fill="#FFD493"></path>
<path d="M7.8309 17.5665C8.78679 17.0107 10.0687 16.8217 11.0283 17.4702C11.6248 17.8519 11.9694 18.5485 12.5696 18.9005C13.0179 19.1859 13.5774 19.297 14.1109 19.3044C14.5963 19.3081 15.0631 19.2414 15.5485 19.1562C15.467 19.197 15.3855 19.234 15.3039 19.2711C14.1887 19.7713 12.8179 19.838 11.8583 18.9709C11.4581 18.6226 11.1839 18.1631 10.7616 17.8556C9.91312 17.233 8.80532 17.3405 7.8309 17.5665Z" fill="#FFD493"></path>
<path d="M9.47593 13.2496C10.5726 13.1051 11.8249 13.4201 12.4659 14.3835C12.8697 14.9653 12.9253 15.7397 13.344 16.2918C13.6515 16.7254 14.1257 17.0441 14.6148 17.2553C15.0594 17.4443 15.5188 17.5628 16.0005 17.6666C15.9116 17.674 15.8226 17.6777 15.73 17.6814C14.5074 17.7148 13.218 17.2553 12.6586 16.088C12.4214 15.6137 12.3436 15.0838 12.0695 14.6392C11.5248 13.7387 10.4578 13.4163 9.47223 13.2496H9.47593Z" fill="#FFD493"></path>
<path d="M12.6511 9.89238C13.7182 10.1777 14.7593 10.9485 14.9816 12.0861C15.1335 12.779 14.8853 13.5164 15.0594 14.1871C15.1743 14.7059 15.4929 15.1802 15.8634 15.5619C16.2043 15.9065 16.5822 16.1918 16.986 16.4734C16.9008 16.4438 16.8156 16.4141 16.7304 16.3845C15.5855 15.9472 14.5741 15.0283 14.5037 13.735C14.4666 13.2051 14.5963 12.6864 14.5148 12.1713C14.3555 11.13 13.4959 10.426 12.6474 9.89609L12.6511 9.89238Z" fill="#FFD493"></path>
<path d="M16.8638 8.00627C17.7419 8.67697 18.4051 9.78863 18.1753 10.9225C18.0531 11.6192 17.5418 12.2046 17.4455 12.8939C17.3528 13.4163 17.4677 13.9759 17.6641 14.4724C17.8456 14.9208 18.0864 15.3284 18.3532 15.7434C18.2865 15.6841 18.2198 15.6248 18.1531 15.5619C17.2639 14.7207 16.6785 13.483 17.1083 12.2639C17.2787 11.76 17.5974 11.3301 17.7196 10.8225C17.9716 9.79975 17.4455 8.81778 16.8638 8.00627Z" fill="#FFD493"></path>
<path d="M21.4802 7.87657C22.036 8.8326 22.2249 10.1147 21.5766 11.0745C21.1949 11.671 20.4984 12.0157 20.1464 12.616C19.8611 13.0643 19.75 13.6239 19.7426 14.1575C19.7389 14.6429 19.8056 15.1098 19.8908 15.5952C19.85 15.5137 19.813 15.4322 19.7759 15.3506C19.2757 14.2353 19.209 12.8642 20.076 11.9045C20.4243 11.5043 20.8837 11.2301 21.1912 10.8077C21.8137 9.95908 21.7062 8.85113 21.4802 7.87657Z" fill="#FFD493"></path>
<path d="M25.7966 9.52183C25.9411 10.6187 25.6262 11.8711 24.6629 12.5122C24.0812 12.9161 23.3068 12.9717 22.7548 13.3904C22.3213 13.698 22.0026 14.1723 21.7915 14.6614C21.6025 15.1061 21.4839 15.5656 21.3802 16.0473C21.3728 15.9583 21.3691 15.8694 21.3654 15.7768C21.332 14.5539 21.7915 13.2644 22.9585 12.7049C23.4328 12.4677 23.9626 12.3899 24.4072 12.1157C25.3075 11.571 25.6299 10.5038 25.7966 9.51813V9.52183Z" fill="#FFD493"></path>
<path d="M29.1533 12.6938C28.8681 13.761 28.0974 14.8022 26.96 15.0245C26.2671 15.1765 25.5298 14.9282 24.8592 15.1024C24.3405 15.2172 23.8663 15.5359 23.4846 15.9065C23.1401 16.2474 22.8548 16.6253 22.5732 17.0292C22.6029 16.944 22.6325 16.8588 22.6621 16.7736C23.0993 15.6285 24.0182 14.6169 25.3112 14.5465C25.8411 14.5095 26.3598 14.6392 26.8748 14.5577C27.9159 14.3983 28.6198 13.5386 29.1496 12.6901L29.1533 12.6938Z" fill="#FFD493"></path>
<path d="M31.0392 16.9107C30.3686 17.7889 29.2571 18.4522 28.1234 18.2224C27.4268 18.1001 26.8414 17.5888 26.1523 17.4924C25.6299 17.3998 25.0704 17.5147 24.5739 17.7111C24.1256 17.8926 23.7181 18.1335 23.3031 18.4003C23.3624 18.3336 23.4217 18.2669 23.4846 18.2002C24.3257 17.3109 25.5632 16.7254 26.7821 17.1552C27.286 17.3257 27.7158 17.6444 28.2234 17.7666C29.246 18.0186 30.2278 17.4924 31.0392 16.9107Z" fill="#FFD493"></path>
<path d="M31.1689 21.5278C30.213 22.0836 28.931 22.2726 27.9714 21.6241C27.3749 21.2424 27.0304 20.5458 26.4302 20.1938C25.9818 19.9084 25.4224 19.7973 24.8889 19.7899C24.4035 19.7862 23.9367 19.8529 23.4513 19.9381C23.5328 19.8973 23.6143 19.8603 23.6958 19.8232C24.8111 19.323 26.1819 19.2563 27.1415 20.1234C27.5417 20.4717 27.8158 20.9312 28.2382 21.2387C29.0867 21.8613 30.1945 21.7538 31.1689 21.5278Z" fill="#FFD493"></path>
<path d="M29.5239 25.841C28.4272 25.9855 27.1749 25.6705 26.5339 24.7071C26.13 24.1253 26.0745 23.3509 25.6558 22.7988C25.3483 22.3652 24.874 22.0465 24.385 21.8353C23.9404 21.6463 23.4809 21.5278 22.9993 21.424C23.0882 21.4166 23.1771 21.4129 23.2698 21.4092C24.4924 21.3758 25.7818 21.8353 26.3412 23.0026C26.5784 23.4769 26.6562 24.0068 26.9303 24.4514C27.475 25.3519 28.542 25.6743 29.5276 25.841H29.5239Z" fill="#FFD493"></path>
<path d="M26.3523 29.1982C25.2853 28.9129 24.2442 28.1421 24.0219 27.0045C23.87 26.3116 24.1182 25.5742 23.9441 24.9035C23.8292 24.3847 23.5106 23.9104 23.1401 23.5287C22.7992 23.1841 22.4213 22.8988 22.0175 22.6172C22.1027 22.6468 22.1879 22.6765 22.2731 22.7061C23.418 23.1434 24.4294 24.0623 24.4998 25.3556C24.5369 25.8855 24.4072 26.4042 24.4887 26.9193C24.648 27.9606 25.5076 28.6646 26.356 29.1945L26.3523 29.1982Z" fill="#FFD493"></path>
</svg><style>@media (prefers-color-scheme: light) { :root { filter: none; } }
@media (prefers-color-scheme: dark) { :root { filter: none; } }
</style></svg>